<?xml version="1.0" standalone="no"?>
<!DOCTYPE svg PUBLIC "-//W3C//DTD SVG 20010904//EN"
 "http://www.w3.org/TR/2001/REC-SVG-20010904/DTD/svg10.dtd">
<?xml version="1.0" encoding="UTF-8"?>
<!DOCTYPE svg PUBLIC "-//W3C//DTD SVG 1.1//EN" "http://www.w3.org/Graphics/SVG/1.1/DTD/svg11.dtd">
<svg xmlns="http://www.w3.org/2000/svg" version="1.1" width="4084px" height="1320px" style="shape-rendering:geometricPrecision; text-rendering:geometricPrecision; image-rendering:optimizeQuality; fill-rule:evenodd; clip-rule:evenodd" xmlns:xlink="http://www.w3.org/1999/xlink">
<g><path style="opacity:0.965" fill="#000000" d="M 570.5,-0.5 C 582.5,-0.5 594.5,-0.5 606.5,-0.5C 623.548,2.01919 639.881,7.18586 655.5,15C 803.84,101.505 952.506,187.505 1101.5,273C 1142.13,296.711 1166.63,331.878 1175,378.5C 1175.97,385.135 1176.64,391.801 1177,398.5C 1177.67,572.5 1177.67,746.5 1177,920.5C 1174.44,968.123 1154.61,1006.62 1117.5,1036C 965.33,1124.59 812.997,1212.92 660.5,1301C 638.831,1312.66 615.831,1318.83 591.5,1319.5C 589.5,1319.5 587.5,1319.5 585.5,1319.5C 561.158,1318.83 538.158,1312.66 516.5,1301C 365.5,1213.33 214.5,1125.67 63.5,1038C 23.3712,1007.91 2.03786,967.747 -0.5,917.5C -0.5,745.5 -0.5,573.5 -0.5,401.5C 2.03669,351.256 23.37,311.089 63.5,281C 216.833,192 370.167,103 523.5,14C 538.562,6.80998 554.228,1.97665 570.5,-0.5 Z M 579.5,26.5 C 603.69,25.0477 626.356,30.2143 647.5,42C 795.5,128 943.5,214 1091.5,300C 1123.61,321.684 1142.44,351.851 1148,390.5C 1148.67,568.167 1148.67,745.833 1148,923.5C 1142.65,964.076 1122.81,995.242 1088.5,1017C 942.003,1101.75 795.67,1186.75 649.5,1272C 612.351,1292.8 574.685,1293.8 536.5,1275C 388.33,1188.75 239.997,1102.75 91.5,1017C 57.4692,995.14 37.9692,963.974 33,923.5C 32.3333,745.833 32.3333,568.167 33,390.5C 38.8411,347.273 60.6744,315.106 98.5,294C 242.997,210.586 387.33,126.919 531.5,43C 546.462,34.1803 562.462,28.6803 579.5,26.5 Z"/></g>
<g><path style="opacity:0.982" fill="#000000" d="M 625.5,125.5 C 646.691,123.703 666.357,128.203 684.5,139C 698.237,152.352 699.07,166.518 687,181.5C 670.772,196.359 651.605,204.859 629.5,207C 611.459,209.358 593.792,207.691 576.5,202C 552.643,192.497 546.81,176.664 559,154.5C 571.775,141.193 587.275,132.693 605.5,129C 612.289,127.703 618.956,126.536 625.5,125.5 Z"/></g>
<g><path style="opacity:0.983" fill="#000000" d="M 475.5,205.5 C 493.664,203.899 511.331,206.066 528.5,212C 551.451,222.341 556.618,238.174 544,259.5C 527.007,276.289 506.507,285.789 482.5,288C 464.477,290.26 446.81,288.593 429.5,283C 404.601,272.742 399.101,256.242 413,233.5C 430.74,217.213 451.573,207.879 475.5,205.5 Z"/></g>
<g><path style="opacity:0.981" fill="#000000" d="M 873.5,272.5 C 894.22,270.61 913.554,274.776 931.5,285C 946.886,298.037 948.386,312.537 936,328.5C 918.634,344.299 898.134,353.132 874.5,355C 852.708,357.939 832.375,353.939 813.5,343C 799.662,330.792 797.829,316.959 808,301.5C 818.52,290 831.354,282.167 846.5,278C 855.51,275.503 864.51,273.67 873.5,272.5 Z"/></g>
<g><path style="opacity:0.982" fill="#000000" d="M 330.5,286.5 C 351.904,284.347 371.904,288.513 390.5,299C 405.729,312.082 407.229,326.582 395,342.5C 377.249,359.318 356.082,368.818 331.5,371C 313.79,372.872 296.457,371.205 279.5,366C 268.851,362.348 261.017,355.514 256,345.5C 253.081,329.161 258.581,316.327 272.5,307C 290.163,295.28 309.496,288.447 330.5,286.5 Z"/></g>
<g><path style="opacity:0.983" fill="#000000" d="M 725.5,353.5 C 743.676,351.858 761.343,354.024 778.5,360C 800.513,369.707 806.013,385.207 795,406.5C 779.389,423.056 760.223,432.89 737.5,436C 717.391,439.215 697.724,437.548 678.5,431C 655.202,420.443 650.035,404.277 663,382.5C 674.408,370.374 688.241,362.207 704.5,358C 711.59,356.269 718.59,354.769 725.5,353.5 Z"/></g>
<g><path style="opacity:0.99" fill="#000000" d="M 62.5,367.5 C 232.219,466.777 401.719,566.444 571,666.5C 571.833,706.171 571.667,745.838 570.5,785.5C 435.609,706.764 301.109,627.431 167,547.5C 166.333,600.833 166.333,654.167 167,707.5C 279.92,774.045 393.087,840.212 506.5,906C 507.663,946.096 507.83,986.262 507,1026.5C 393.502,959.752 280.168,892.752 167,825.5C 166.833,889.836 166.333,954.169 165.5,1018.5C 131.5,998.5 97.5,978.5 63.5,958.5C 62.5,761.501 62.1667,564.501 62.5,367.5 Z"/></g>
<g><path style="opacity:0.991" fill="#000000" d="M 1109.5,368.5 C 1110.83,566 1110.83,763.667 1109.5,961.5C 1038.33,1003.59 966.998,1045.42 895.5,1087C 880.918,1092.17 865.918,1093.83 850.5,1092C 829.035,1086.54 815.535,1073.04 810,1051.5C 808.615,1046.24 807.615,1040.91 807,1035.5C 806.258,933.165 806.425,830.832 807.5,728.5C 807.333,716.167 807.167,703.833 807,691.5C 805.142,680.979 798.975,677.146 788.5,680C 760.542,694.979 732.875,710.479 705.5,726.5C 704.667,883.832 704.167,1041.17 704,1198.5C 672.087,1219.21 639.92,1239.54 607.5,1259.5C 606.333,1062.5 606.167,865.501 607,668.5C 678.312,625.203 750.145,582.703 822.5,541C 841.765,532.827 861.099,532.493 880.5,540C 898.15,552.115 907.983,568.949 910,590.5C 910.825,703.844 910.659,817.178 909.5,930.5C 909.701,935.759 910.868,940.759 913,945.5C 919.601,951.981 926.101,951.814 932.5,945C 958.833,930.667 985.167,916.333 1011.5,902C 1012.33,744.236 1012.83,586.403 1013,428.5C 1045.31,408.6 1077.48,388.6 1109.5,368.5 Z"/></g>
<g><path style="opacity:0.982" fill="#000000" d="M 581.5,435.5 C 601.525,433.709 620.525,437.209 638.5,446C 657.217,459.436 659.384,475.27 645,493.5C 626.725,509.879 605.225,519.045 580.5,521C 562.211,523.149 544.544,520.816 527.5,514C 504.757,502.193 500.59,485.693 515,464.5C 526.253,452.951 539.753,445.118 555.5,441C 564.193,438.613 572.86,436.78 581.5,435.5 Z"/></g>
<g><path style="opacity:0.991" fill="#000000" d="M 3290.5,470.5 C 3326.15,471.56 3351.31,488.226 3366,520.5C 3367.64,525.077 3368.98,529.744 3370,534.5C 3371.49,646.141 3371.99,757.807 3371.5,869.5C 3344.5,869.5 3317.5,869.5 3290.5,869.5C 3290.67,768.166 3290.5,666.833 3290,565.5C 3287.46,558.138 3282.29,553.972 3274.5,553C 3201.17,552.5 3127.83,552.333 3054.5,552.5C 3054.5,658.5 3054.5,764.5 3054.5,870.5C 3027.83,870.5 3001.17,870.5 2974.5,870.5C 2974.5,737.833 2974.5,605.167 2974.5,472.5C 3080.17,473.165 3185.51,472.498 3290.5,470.5 Z"/></g>
<g><path style="opacity:0.988" fill="#000000" d="M 1550.5,472.5 C 1683.17,472.5 1815.83,472.5 1948.5,472.5C 1948.5,499.167 1948.5,525.833 1948.5,552.5C 1842.83,552.5 1737.17,552.5 1631.5,552.5C 1631.5,587.833 1631.5,623.167 1631.5,658.5C 1720.5,658.5 1809.5,658.5 1898.5,658.5C 1898.5,685.5 1898.5,712.5 1898.5,739.5C 1809.5,739.5 1720.5,739.5 1631.5,739.5C 1631.5,783.167 1631.5,826.833 1631.5,870.5C 1604.5,870.5 1577.5,870.5 1550.5,870.5C 1550.5,737.833 1550.5,605.167 1550.5,472.5 Z"/></g>
<g><path style="opacity:0.989" fill="#000000" d="M 2262.5,472.5 C 2289.5,472.5 2316.5,472.5 2343.5,472.5C 2343.01,574.89 2343.51,677.223 2345,779.5C 2348.59,786.094 2354.09,789.928 2361.5,791C 2428.83,791.667 2496.17,791.667 2563.5,791C 2574.57,788.597 2580.74,781.764 2582,770.5C 2582.5,671.167 2582.67,571.834 2582.5,472.5C 2608.5,472.5 2634.5,472.5 2660.5,472.5C 2660.67,581.167 2660.5,689.834 2660,798.5C 2655.24,834.589 2635.41,857.756 2600.5,868C 2595.88,868.958 2591.21,869.625 2586.5,870C 2544.83,870.167 2503.17,870.333 2461.5,870.5C 2417.14,870.645 2372.81,870.145 2328.5,869C 2290.43,860.594 2268.59,837.094 2263,798.5C 2262.5,689.834 2262.33,581.167 2262.5,472.5 Z"/></g>
<g><path style="opacity:0.988" fill="#000000" d="M 4083.5,579.5 C 4083.5,676.5 4083.5,773.5 4083.5,870.5C 4056.5,870.5 4029.5,870.5 4002.5,870.5C 4002.5,826.833 4002.5,783.167 4002.5,739.5C 3923.83,739.5 3845.17,739.5 3766.5,739.5C 3766.5,783.167 3766.5,826.833 3766.5,870.5C 3739.5,870.5 3712.5,870.5 3685.5,870.5C 3685.02,770.143 3685.52,669.81 3687,569.5C 3695.66,526.003 3720.5,495.836 3761.5,479C 3770.25,475.895 3779.25,473.895 3788.5,473C 3852.17,472.333 3915.83,472.333 3979.5,473C 4031.51,480.345 4065.01,509.179 4080,559.5C 4081.3,566.289 4082.46,572.956 4083.5,579.5 Z M 3792.5,552.5 C 3853.83,552.333 3915.17,552.5 3976.5,553C 3984.26,553.631 3990.76,556.798 3996,562.5C 3998.88,566.049 4000.88,570.049 4002,574.5C 4002.5,603.165 4002.67,631.831 4002.5,660.5C 3923.83,660.5 3845.17,660.5 3766.5,660.5C 3766.33,631.498 3766.5,602.498 3767,573.5C 3771.6,561.635 3780.1,554.635 3792.5,552.5 Z"/></g>
<g><path style="opacity:0.962" fill="#000000" d="M 3140.5,1017.5 C 3148.94,1017.78 3154.77,1021.78 3158,1029.5C 3158.67,1038.5 3158.67,1047.5 3158,1056.5C 3155.89,1060.95 3152.72,1064.45 3148.5,1067C 3153.43,1068.93 3156.59,1072.43 3158,1077.5C 3158.5,1086.16 3158.67,1094.83 3158.5,1103.5C 3152.5,1103.5 3146.5,1103.5 3140.5,1103.5C 3140.67,1094.83 3140.5,1086.16 3140,1077.5C 3139.5,1077 3139,1076.5 3138.5,1076C 3122.84,1075.5 3107.17,1075.33 3091.5,1075.5C 3091.5,1084.83 3091.5,1094.17 3091.5,1103.5C 3085.5,1103.5 3079.5,1103.5 3073.5,1103.5C 3073.5,1075.17 3073.5,1046.83 3073.5,1018.5C 3096.01,1018.83 3118.34,1018.5 3140.5,1017.5 Z M 3091.5,1035.5 C 3107.17,1035.33 3122.84,1035.5 3138.5,1036C 3139,1036.5 3139.5,1037 3140,1037.5C 3140.81,1044.08 3140.64,1050.58 3139.5,1057C 3123.5,1057.5 3107.5,1057.67 3091.5,1057.5C 3091.5,1050.17 3091.5,1042.83 3091.5,1035.5 Z"/></g>
<g><path style="opacity:0.967" fill="#000000" d="M 1704.5,1018.5 C 1710.5,1018.5 1716.5,1018.5 1722.5,1018.5C 1722.33,1029.17 1722.5,1039.84 1723,1050.5C 1723.75,1051.13 1724.58,1051.63 1725.5,1052C 1739.5,1052.67 1753.5,1052.67 1767.5,1052C 1768.62,1051.75 1769.62,1051.25 1770.5,1050.5C 1771.48,1039.89 1771.81,1029.22 1771.5,1018.5C 1777.5,1018.5 1783.5,1018.5 1789.5,1018.5C 1789.67,1031.5 1789.5,1044.5 1789,1057.5C 1787.26,1062.91 1783.76,1066.74 1778.5,1069C 1770.84,1069.5 1763.17,1069.67 1755.5,1069.5C 1755.5,1080.83 1755.5,1092.17 1755.5,1103.5C 1749.5,1103.5 1743.5,1103.5 1737.5,1103.5C 1737.5,1092.17 1737.5,1080.83 1737.5,1069.5C 1729.08,1069.91 1720.75,1069.41 1712.5,1068C 1709.17,1065.51 1706.67,1062.34 1705,1058.5C 1704.5,1045.17 1704.33,1031.84 1704.5,1018.5 Z"/></g>
<g><path style="opacity:0.96" fill="#000000" d="M 1873.5,1018.5 C 1890.17,1018.33 1906.84,1018.5 1923.5,1019C 1933.28,1022.45 1939.12,1029.28 1941,1039.5C 1941.5,1060.83 1941.67,1082.16 1941.5,1103.5C 1935.5,1103.5 1929.5,1103.5 1923.5,1103.5C 1923.5,1094.17 1923.5,1084.83 1923.5,1075.5C 1906.83,1075.5 1890.17,1075.5 1873.5,1075.5C 1873.5,1084.83 1873.5,1094.17 1873.5,1103.5C 1867.5,1103.5 1861.5,1103.5 1855.5,1103.5C 1855.33,1081.83 1855.5,1060.16 1856,1038.5C 1858.52,1028.82 1864.35,1022.16 1873.5,1018.5 Z M 1876.5,1036.5 C 1891.17,1036.33 1905.84,1036.5 1920.5,1037C 1921.7,1037.9 1922.53,1039.07 1923,1040.5C 1923.5,1046.49 1923.67,1052.49 1923.5,1058.5C 1906.83,1058.5 1890.17,1058.5 1873.5,1058.5C 1873.33,1052.16 1873.5,1045.82 1874,1039.5C 1875.04,1038.63 1875.88,1037.63 1876.5,1036.5 Z"/></g>
<g><path style="opacity:0.953" fill="#000000" d="M 2007.5,1018.5 C 2035.83,1018.5 2064.17,1018.5 2092.5,1018.5C 2092.67,1031.84 2092.5,1045.17 2092,1058.5C 2090.14,1063.69 2086.64,1067.19 2081.5,1069C 2063.83,1069.33 2046.17,1069.67 2028.5,1070C 2027.58,1070.37 2026.75,1070.87 2026,1071.5C 2025.5,1076.15 2025.33,1080.82 2025.5,1085.5C 2048.17,1085.5 2070.83,1085.5 2093.5,1085.5C 2093.5,1091.5 2093.5,1097.5 2093.5,1103.5C 2064.83,1103.5 2036.17,1103.5 2007.5,1103.5C 2007.33,1090.5 2007.5,1077.5 2008,1064.5C 2010.27,1057.89 2014.77,1053.73 2021.5,1052C 2038.83,1051.67 2056.17,1051.33 2073.5,1051C 2074.47,1046.26 2074.8,1041.43 2074.5,1036.5C 2052.17,1036.5 2029.83,1036.5 2007.5,1036.5C 2007.5,1030.5 2007.5,1024.5 2007.5,1018.5 Z"/></g>
<g><path style="opacity:0.955" fill="#000000" d="M 2159.5,1018.5 C 2176.17,1018.5 2192.83,1018.5 2209.5,1018.5C 2209.5,1024.5 2209.5,1030.5 2209.5,1036.5C 2204.17,1036.5 2198.83,1036.5 2193.5,1036.5C 2193.5,1052.83 2193.5,1069.17 2193.5,1085.5C 2198.83,1085.5 2204.17,1085.5 2209.5,1085.5C 2209.5,1091.5 2209.5,1097.5 2209.5,1103.5C 2192.83,1103.5 2176.17,1103.5 2159.5,1103.5C 2159.5,1097.5 2159.5,1091.5 2159.5,1085.5C 2164.83,1085.5 2170.17,1085.5 2175.5,1085.5C 2175.5,1069.17 2175.5,1052.83 2175.5,1036.5C 2170.17,1036.5 2164.83,1036.5 2159.5,1036.5C 2159.5,1030.5 2159.5,1024.5 2159.5,1018.5 Z"/></g>
<g><path style="opacity:0.954" fill="#000000" d="M 2275.5,1018.5 C 2281.5,1018.5 2287.5,1018.5 2293.5,1018.5C 2293.5,1040.83 2293.5,1063.17 2293.5,1085.5C 2316.17,1085.5 2338.83,1085.5 2361.5,1085.5C 2361.5,1091.5 2361.5,1097.5 2361.5,1103.5C 2332.83,1103.5 2304.17,1103.5 2275.5,1103.5C 2275.5,1075.17 2275.5,1046.83 2275.5,1018.5 Z"/></g>
<g><path style="opacity:0.96" fill="#000000" d="M 2427.5,1018.5 C 2444.17,1018.5 2460.83,1018.5 2477.5,1018.5C 2477.5,1024.5 2477.5,1030.5 2477.5,1036.5C 2472.17,1036.5 2466.83,1036.5 2461.5,1036.5C 2461.5,1052.83 2461.5,1069.17 2461.5,1085.5C 2466.83,1085.5 2472.17,1085.5 2477.5,1085.5C 2477.5,1091.5 2477.5,1097.5 2477.5,1103.5C 2460.83,1103.5 2444.17,1103.5 2427.5,1103.5C 2427.5,1097.5 2427.5,1091.5 2427.5,1085.5C 2432.83,1085.5 2438.17,1085.5 2443.5,1085.5C 2443.5,1069.17 2443.5,1052.83 2443.5,1036.5C 2438.17,1036.5 2432.83,1036.5 2427.5,1036.5C 2427.5,1030.5 2427.5,1024.5 2427.5,1018.5 Z"/></g>
<g><path style="opacity:0.955" fill="#000000" d="M 2555.5,1018.5 C 2580.5,1018.33 2605.5,1018.5 2630.5,1019C 2636.74,1020.91 2640.57,1025.07 2642,1031.5C 2642.5,1055.5 2642.67,1079.5 2642.5,1103.5C 2636.5,1103.5 2630.5,1103.5 2624.5,1103.5C 2624.67,1081.5 2624.5,1059.5 2624,1037.5C 2616.92,1036.52 2609.75,1036.19 2602.5,1036.5C 2602.5,1058.83 2602.5,1081.17 2602.5,1103.5C 2596.5,1103.5 2590.5,1103.5 2584.5,1103.5C 2584.5,1081.17 2584.5,1058.83 2584.5,1036.5C 2577.49,1036.33 2570.49,1036.5 2563.5,1037C 2563,1037.5 2562.5,1038 2562,1038.5C 2561.5,1060.16 2561.33,1081.83 2561.5,1103.5C 2555.5,1103.5 2549.5,1103.5 2543.5,1103.5C 2543.33,1079.5 2543.5,1055.5 2544,1031.5C 2545.62,1025.06 2549.45,1020.72 2555.5,1018.5 Z"/></g>
<g><path style="opacity:0.964" fill="#000000" d="M 2826.5,1018.5 C 2847.5,1018.5 2868.5,1018.5 2889.5,1018.5C 2889.5,1024.5 2889.5,1030.5 2889.5,1036.5C 2871.16,1036.33 2852.83,1036.5 2834.5,1037C 2832.06,1041.05 2831.89,1045.22 2834,1049.5C 2835.07,1050.19 2836.23,1050.69 2837.5,1051C 2858.5,1051.5 2879.5,1051.67 2900.5,1051.5C 2900.5,1057.5 2900.5,1063.5 2900.5,1069.5C 2898.83,1069.5 2897.17,1069.5 2895.5,1069.5C 2895.67,1076.84 2895.5,1084.17 2895,1091.5C 2893.65,1096.18 2890.82,1099.68 2886.5,1102C 2876.24,1103.13 2865.9,1103.63 2855.5,1103.5C 2846.17,1103.33 2836.83,1103.17 2827.5,1103C 2822.09,1101.26 2818.26,1097.76 2816,1092.5C 2815.33,1085.17 2815.33,1077.83 2816,1070.5C 2817.83,1066 2821,1062.83 2825.5,1061C 2820.91,1058.75 2817.75,1055.25 2816,1050.5C 2815.33,1043.5 2815.33,1036.5 2816,1029.5C 2818.36,1024.65 2821.86,1020.98 2826.5,1018.5 Z M 2836.5,1069.5 C 2850.17,1069.5 2863.83,1069.5 2877.5,1069.5C 2877.8,1074.76 2877.47,1079.93 2876.5,1085C 2862.5,1085.67 2848.5,1085.67 2834.5,1085C 2832.54,1081.41 2832.04,1077.57 2833,1073.5C 2833.69,1071.65 2834.86,1070.32 2836.5,1069.5 Z"/></g>
<g><path style="opacity:0.961" fill="#000000" d="M 3224.5,1018.5 C 3253.17,1018.5 3281.83,1018.5 3310.5,1018.5C 3310.5,1024.5 3310.5,1030.5 3310.5,1036.5C 3287.83,1036.5 3265.17,1036.5 3242.5,1036.5C 3242.5,1041.83 3242.5,1047.17 3242.5,1052.5C 3261.5,1052.5 3280.5,1052.5 3299.5,1052.5C 3299.5,1058.17 3299.5,1063.83 3299.5,1069.5C 3280.5,1069.5 3261.5,1069.5 3242.5,1069.5C 3242.5,1074.83 3242.5,1080.17 3242.5,1085.5C 3265.17,1085.5 3287.83,1085.5 3310.5,1085.5C 3310.5,1091.5 3310.5,1097.5 3310.5,1103.5C 3281.83,1103.5 3253.17,1103.5 3224.5,1103.5C 3224.5,1075.17 3224.5,1046.83 3224.5,1018.5 Z"/></g>
<g><path style="opacity:0.974" fill="#000000" d="M 3376.5,1018.5 C 3382.5,1018.5 3388.5,1018.5 3394.5,1018.5C 3394.5,1029.83 3394.5,1041.17 3394.5,1052.5C 3410.6,1052.97 3426.6,1052.47 3442.5,1051C 3443.13,1050.25 3443.63,1049.42 3444,1048.5C 3444.5,1038.51 3444.67,1028.51 3444.5,1018.5C 3450.17,1018.5 3455.83,1018.5 3461.5,1018.5C 3461.67,1029.51 3461.5,1040.51 3461,1051.5C 3459.17,1056 3456,1059.17 3451.5,1061C 3456.43,1062.93 3459.59,1066.43 3461,1071.5C 3461.5,1082.16 3461.67,1092.83 3461.5,1103.5C 3455.83,1103.5 3450.17,1103.5 3444.5,1103.5C 3444.67,1093.49 3444.5,1083.49 3444,1073.5C 3443.63,1072.58 3443.13,1071.75 3442.5,1071C 3426.6,1069.53 3410.6,1069.03 3394.5,1069.5C 3394.5,1080.83 3394.5,1092.17 3394.5,1103.5C 3388.5,1103.5 3382.5,1103.5 3376.5,1103.5C 3376.5,1075.17 3376.5,1046.83 3376.5,1018.5 Z"/></g>
<g><path style="opacity:0.978" fill="#000000" d="M 3528.5,1018.5 C 3534.17,1018.5 3539.83,1018.5 3545.5,1018.5C 3545.5,1040.83 3545.5,1063.17 3545.5,1085.5C 3568.17,1085.5 3590.83,1085.5 3613.5,1085.5C 3613.5,1091.5 3613.5,1097.5 3613.5,1103.5C 3585.17,1103.5 3556.83,1103.5 3528.5,1103.5C 3528.5,1075.17 3528.5,1046.83 3528.5,1018.5 Z"/></g>
<g><path style="opacity:0.961" fill="#000000" d="M 3697.5,1018.5 C 3713.84,1018.33 3730.17,1018.5 3746.5,1019C 3757.31,1022.15 3763.48,1029.31 3765,1040.5C 3765.5,1061.5 3765.67,1082.5 3765.5,1103.5C 3759.5,1103.5 3753.5,1103.5 3747.5,1103.5C 3747.5,1094.17 3747.5,1084.83 3747.5,1075.5C 3730.83,1075.5 3714.17,1075.5 3697.5,1075.5C 3697.5,1084.83 3697.5,1094.17 3697.5,1103.5C 3691.5,1103.5 3685.5,1103.5 3679.5,1103.5C 3679.33,1081.83 3679.5,1060.16 3680,1038.5C 3682.52,1028.82 3688.35,1022.16 3697.5,1018.5 Z M 3700.5,1036.5 C 3715.17,1036.33 3729.84,1036.5 3744.5,1037C 3745.7,1037.9 3746.53,1039.07 3747,1040.5C 3747.5,1046.49 3747.67,1052.49 3747.5,1058.5C 3730.83,1058.5 3714.17,1058.5 3697.5,1058.5C 3697.33,1052.16 3697.5,1045.82 3698,1039.5C 3699.04,1038.63 3699.88,1037.63 3700.5,1036.5 Z"/></g>
<g><path style="opacity:0.968" fill="#000000" d="M 3842.5,1018.5 C 3867.84,1018.33 3893.17,1018.5 3918.5,1019C 3923.67,1020.83 3927.17,1024.33 3929,1029.5C 3929.5,1054.16 3929.67,1078.83 3929.5,1103.5C 3923.83,1103.5 3918.17,1103.5 3912.5,1103.5C 3912.67,1082.16 3912.5,1060.83 3912,1039.5C 3911.63,1038.58 3911.13,1037.75 3910.5,1037C 3903.51,1036.5 3896.51,1036.33 3889.5,1036.5C 3889.5,1058.83 3889.5,1081.17 3889.5,1103.5C 3883.5,1103.5 3877.5,1103.5 3871.5,1103.5C 3871.5,1081.17 3871.5,1058.83 3871.5,1036.5C 3864.25,1036.19 3857.08,1036.52 3850,1037.5C 3849.5,1059.5 3849.33,1081.5 3849.5,1103.5C 3843.5,1103.5 3837.5,1103.5 3831.5,1103.5C 3831.33,1078.83 3831.5,1054.16 3832,1029.5C 3834.36,1024.65 3837.86,1020.98 3842.5,1018.5 Z"/></g>
</svg>

